<?xml version="1.0" encoding="iso-8859-1"?>
<!-- Generator: Adobe Illustrator 19.0.0, SVG Export Plug-In . SVG Version: 6.00 Build 0)  -->
<svg version="1.1" id="Capa_1" xmlns="http://www.w3.org/2000/svg" xmlns:xlink="http://www.w3.org/1999/xlink" x="0px" y="0px"
	 viewBox="0 0 512.004 512.004" style="enable-background:new 0 0 512.004 512.004;" xml:space="preserve">
<path style="fill:#FFD15C;" d="M425.694,118.916H162.153c-17.664,0-32,14.325-32,32V381.53c0,17.675,14.336,32,32,32h263.541
	c17.675,0,32-14.325,32-32V150.916C457.694,133.242,443.369,118.916,425.694,118.916"/>
<polygon style="fill:#F2F2F2;" points="293.918,191.898 253.182,210.948 253.182,118.874 334.644,118.874 334.644,210.948 "/>
<path style="fill:#FF7058;" d="M496.948,413.892h-6.357c-6.411-80.875-74.112-144.757-156.608-144.757H93.406V47.183
	c0-3.893-2.123-7.477-5.547-9.344L22.324,1.85C15.049-2.129,5.876,0.516,1.865,7.812c-4,7.296-1.333,16.448,5.963,20.448
	l55.467,30.432v374.656c0,1.717,0.491,3.285,1.216,4.725v1.643h1.099c1.963,2.549,4.885,4.299,8.341,4.299h422.987
	c8.309,0,15.061-6.741,15.061-15.061C512.009,420.655,505.257,413.892,496.948,413.892 M93.406,385.626v-89.824h240.587
	c57.749,0,106.763,37.749,123.936,89.824H93.406z"/>
<path style="fill:#40596B;" d="M211.198,455.204c0,31.371-25.429,56.8-56.789,56.8c-31.371,0-56.8-25.429-56.8-56.8
	c0-31.371,25.429-56.8,56.8-56.8C185.769,398.415,211.198,423.834,211.198,455.204"/>
<path style="fill:#FFFFFF;" d="M178.644,455.204c0,13.387-10.859,24.245-24.245,24.245c-13.387,0-24.224-10.859-24.224-24.245
	s10.848-24.245,24.224-24.245C167.785,430.959,178.644,441.818,178.644,455.204"/>
<path style="fill:#40596B;" d="M473.3,455.204c0,31.371-25.44,56.8-56.8,56.8c-31.371,0-56.8-25.429-56.8-56.8
	c0-31.371,25.429-56.8,56.8-56.8C447.86,398.415,473.3,423.834,473.3,455.204"/>
<path style="fill:#FFFFFF;" d="M440.734,455.204c0,13.387-10.848,24.245-24.245,24.245c-13.387,0-24.224-10.859-24.224-24.245
	s10.848-24.245,24.224-24.245C429.897,430.959,440.734,441.818,440.734,455.204"/>
<g>
</g>
<g>
</g>
<g>
</g>
<g>
</g>
<g>
</g>
<g>
</g>
<g>
</g>
<g>
</g>
<g>
</g>
<g>
</g>
<g>
</g>
<g>
</g>
<g>
</g>
<g>
</g>
<g>
</g>
</svg>
